<?xml version="1.0" encoding="iso-8859-1"?>
<!-- Generator: Adobe Illustrator 19.0.0, SVG Export Plug-In . SVG Version: 6.00 Build 0)  -->
<svg version="1.1" id="Capa_1" xmlns="http://www.w3.org/2000/svg" xmlns:xlink="http://www.w3.org/1999/xlink" x="0px" y="0px"
	 viewBox="0 0 121.67 121.67" style="enable-background:new 0 0 121.67 121.67;" xml:space="preserve">
<g>
	<path d="M60.835,121.67c-33.544,0-60.834-27.291-60.834-60.836C0.001,27.29,27.291,0,60.835,0s60.834,27.29,60.834,60.834
		C121.669,94.379,94.379,121.67,60.835,121.67z M60.835,6C30.6,6,6.001,30.599,6.001,60.834c0,30.236,24.599,54.836,54.834,54.836
		s54.834-24.6,54.834-54.836C115.669,30.599,91.07,6,60.835,6z"/>
	<path d="M60.636,100.435c-10.041,0-18.209-7.281-18.209-16.231h6c0,5.642,5.477,10.231,12.209,10.231
		c6.731,0,12.207-4.59,12.207-10.231h6C78.843,93.153,70.675,100.435,60.636,100.435z"/>
	<path d="M46.382,66.218h-6c0-5.437-3.697-9.86-8.242-9.86s-8.242,4.423-8.242,9.86h-6c0-8.746,6.389-15.86,14.242-15.86
		S46.382,57.472,46.382,66.218z"/>
	<path d="M103.771,66.218h-6c0-5.437-3.697-9.86-8.242-9.86s-8.242,4.423-8.242,9.86h-6c0-8.746,6.389-15.86,14.242-15.86
		S103.771,57.472,103.771,66.218z"/>
</g>
<g>
</g>
<g>
</g>
<g>
</g>
<g>
</g>
<g>
</g>
<g>
</g>
<g>
</g>
<g>
</g>
<g>
</g>
<g>
</g>
<g>
</g>
<g>
</g>
<g>
</g>
<g>
</g>
<g>
</g>
</svg>
