<?xml version="1.0" encoding="iso-8859-1"?>
<!-- Generator: Adobe Illustrator 19.0.0, SVG Export Plug-In . SVG Version: 6.00 Build 0)  -->
<svg version="1.1" id="Layer_1" xmlns="http://www.w3.org/2000/svg" xmlns:xlink="http://www.w3.org/1999/xlink" x="0px" y="0px"
	 viewBox="0 0 512 512" style="enable-background:new 0 0 512 512;" xml:space="preserve">
<g>
	<g>
		<path d="M392.17,299.574c-10.938,0-20.735,4.987-27.234,12.805c-6.499-7.818-16.296-12.805-27.234-12.805
			c-10.938,0-20.735,4.987-27.234,12.805c-6.499-7.818-16.296-12.805-27.234-12.805c-10.938,0-20.735,4.987-27.234,12.805
			c-6.499-7.818-16.296-12.805-27.234-12.805c-10.938,0-20.735,4.987-27.234,12.805c-6.499-7.818-16.296-12.805-27.234-12.805
			c-10.938,0-20.735,4.987-27.234,12.805c-6.499-7.818-16.296-12.805-27.234-12.805c-19.522,0-35.404,15.882-35.404,35.404v59.915
			c0,4.513,3.657,8.17,8.17,8.17c62.937,0,116.907,41.387,134.299,102.986c0.994,3.519,4.205,5.95,7.863,5.95h42.485
			c3.657,0,6.87-2.43,7.863-5.95c17.393-61.599,71.363-102.986,134.299-102.986c4.513,0,8.17-3.657,8.17-8.17v-59.915
			C427.574,315.456,411.693,299.574,392.17,299.574z M392.17,315.915c7.585,0,14.131,4.464,17.198,10.894h-34.397
			C378.039,320.379,384.585,315.915,392.17,315.915z M337.702,315.915c7.585,0,14.131,4.464,17.198,10.894h-34.397
			C323.571,320.379,330.117,315.915,337.702,315.915z M283.234,315.915c7.585,0,14.131,4.464,17.198,10.894h-34.397
			C269.103,320.379,275.649,315.915,283.234,315.915z M228.766,315.915c7.585,0,14.131,4.464,17.198,10.894h-34.397
			C214.635,320.379,221.181,315.915,228.766,315.915z M174.298,315.915c7.585,0,14.131,4.464,17.198,10.894h-34.397
			C160.167,320.379,166.713,315.915,174.298,315.915z M119.83,315.915c7.585,0,14.131,4.464,17.198,10.894h-34.396
			C105.699,320.379,112.245,315.915,119.83,315.915z M411.235,386.931c-64.77,3.318-119.776,45.936-140.055,108.728h-30.359
			c-20.277-62.792-75.284-105.41-140.054-108.728v-43.783h310.468V386.931z"/>
	</g>
</g>
<g>
	<g>
		<path d="M433.833,62.638c7.818-6.499,12.805-16.296,12.805-27.234C446.638,15.882,430.756,0,411.234,0
			c-4.513,0-8.17,3.657-8.17,8.17v163.823c0,31.535-25.657,57.191-57.192,57.191h-58.548c8.516-48.442,44.991-88.083,93.21-100.147
			c4.378-1.095,7.038-5.531,5.942-9.909c-1.095-4.377-5.525-7.041-9.909-5.942c-55.426,13.868-97.111,59.977-105.793,115.997
			h-29.549c-8.683-56.02-50.369-102.13-105.791-115.996c-4.379-1.098-8.814,1.565-9.909,5.942c-1.096,4.378,1.565,8.814,5.942,9.909
			c48.216,12.065,84.691,51.704,93.208,100.146h-58.549c-31.535,0-57.192-25.657-57.192-57.191V8.17c0-4.513-3.657-8.17-8.17-8.17
			C81.244,0,65.362,15.882,65.362,35.404c0,10.938,4.987,20.735,12.805,27.234c-7.818,6.499-12.805,16.296-12.805,27.234
			c0,16.712,11.638,30.755,27.234,34.453v47.667c0,40.546,32.986,73.532,73.532,73.532h67.185c0.246,0.023,0.495,0.035,0.745,0.035
			c0.228,0,0.458-0.016,0.688-0.035h42.51c0.231,0.02,0.461,0.035,0.688,0.035c0.251,0,0.498-0.013,0.744-0.035h67.183
			c40.546,0,73.532-32.986,73.532-73.532v-47.667c15.596-3.698,27.234-17.741,27.234-34.453
			C446.638,78.934,441.651,69.137,433.833,62.638z M92.596,107.096c-6.435-3.064-10.894-9.633-10.894-17.224
			c0-7.591,4.459-14.158,10.894-17.224V107.096z M92.596,52.628c-6.435-3.064-10.894-9.633-10.894-17.224
			c0-7.591,4.459-14.158,10.894-17.224V52.628z M419.404,107.096V72.648c6.435,3.064,10.894,9.633,10.894,17.224
			C430.298,97.463,425.839,104.031,419.404,107.096z M419.404,52.628V18.18c6.435,3.064,10.894,9.633,10.894,17.224
			C430.298,42.995,425.839,49.563,419.404,52.628z"/>
	</g>
</g>
<g>
</g>
<g>
</g>
<g>
</g>
<g>
</g>
<g>
</g>
<g>
</g>
<g>
</g>
<g>
</g>
<g>
</g>
<g>
</g>
<g>
</g>
<g>
</g>
<g>
</g>
<g>
</g>
<g>
</g>
</svg>
